<?xml version="1.0" encoding="UTF-8" standalone="no"?>
<!DOCTYPE svg PUBLIC "-//W3C//DTD SVG 1.1//EN" "http://www.w3.org/Graphics/SVG/1.1/DTD/svg11.dtd">
<svg width="100%" height="100%" viewBox="0 0 250 250" version="1.1" xmlns="http://www.w3.org/2000/svg" xmlns:xlink="http://www.w3.org/1999/xlink" xml:space="preserve" xmlns:serif="http://www.serif.com/" style="fill-rule:evenodd;clip-rule:evenodd;stroke-linecap:round;stroke-linejoin:round;stroke-miterlimit:1.5;">
    <g transform="matrix(1,0,0,1,-75.0852,-279.834)">
        <g id="beguem-daniel-logo-diamond" transform="matrix(0.692911,0,0,0.692911,-782.368,-422.7)">
            <rect x="1237.46" y="1013.89" width="360.797" height="360.797" style="fill:none;"/>
            <g transform="matrix(1.79021,1.79021,-1.79021,1.79021,2153.47,822.613)">
                <rect x="-151.023" y="259.883" width="98.754" height="98.754" style="fill:none;stroke:rgb(219,195,152);stroke-width:0.56px;"/>
            </g>
            <g transform="matrix(2.53173,0,0,2.53173,1675.2,411.321)">
                <rect x="-151.023" y="259.883" width="98.754" height="98.754" style="fill:none;stroke:rgb(219,195,152);stroke-width:0.56px;"/>
            </g>
            <g transform="matrix(1.55674,0,0,1.55674,839.857,395.102)">
                <g transform="matrix(0.450216,0,0,0.450216,225.14,150.772)">
                    <path d="M338.066,858.182C336.718,858.93 335.264,859.582 333.704,860.139C329.747,861.458 325.791,862.118 321.834,862.118C317.73,862.118 313.554,861.238 309.304,859.48C305.054,857.721 301.537,855.01 298.752,851.346C297.392,849.484 296.364,847.343 295.668,844.921C297.652,844.262 299.503,843.529 301.23,842.734C301.485,845.898 302.564,848.622 304.468,850.907C306.666,853.544 309.304,855.523 312.381,856.842C315.605,858.161 318.61,858.82 321.394,858.82C322.713,858.82 324.325,858.674 326.23,858.381C328.282,857.941 330.114,857.355 331.726,856.622C333.338,855.889 334.29,855.01 334.583,853.984C332.239,853.544 329.894,852.519 327.549,850.907C325.351,849.148 324.252,846.437 324.252,842.773C324.252,839.256 325.424,836.472 327.769,834.42C330.114,832.368 332.971,831.342 336.342,831.342C337.109,831.342 337.841,831.395 338.539,831.499L338.066,858.182ZM344.265,834.205C344.412,834.345 344.555,834.49 344.695,834.64C346.893,836.838 347.993,839.696 347.993,843.213C347.993,847.316 346.6,850.833 343.816,853.764C343.66,853.929 343.501,854.092 343.34,854.252L344.265,834.205ZM324.707,804.373C324.775,804.35 324.843,804.327 324.911,804.304C329.308,802.839 334.657,801.227 340.958,799.468C347.26,797.71 353.708,795.805 360.303,793.753C367.044,791.701 373.126,789.43 378.548,786.938C385.875,783.568 390.858,780.124 393.496,776.607C396.134,773.09 397.452,769.499 397.452,765.836C397.452,761.586 396.28,757.849 393.935,754.625C391.591,751.254 388.44,748.616 384.483,746.711C380.673,744.659 376.496,743.634 371.953,743.634C370.195,743.634 368.729,743.78 367.557,744.073C366.384,744.366 365.652,744.879 365.358,745.612C367.41,746.638 368.949,748.103 369.975,750.008C371.001,751.913 371.513,753.819 371.513,755.724C371.513,758.801 370.268,761.366 367.777,763.418C365.432,765.469 362.574,766.495 359.203,766.495C356.419,766.495 353.781,765.616 351.29,763.857C348.799,761.952 347.553,759.168 347.553,755.504C347.553,751.694 348.799,748.689 351.29,746.491C353.928,744.293 357.079,742.754 360.742,741.875C364.552,740.849 368.216,740.336 371.733,740.336C380.819,740.336 388.44,742.974 394.595,748.25C400.75,753.379 403.827,760.633 403.827,770.012C403.827,774.995 402.875,779.465 400.97,783.421C399.211,787.232 396.72,790.602 393.496,793.533C390.418,796.464 386.901,798.882 382.944,800.787C379.574,802.399 375.104,804.158 369.535,806.063C364.113,807.968 358.251,809.873 351.949,811.778C351.428,811.94 350.908,812.101 350.39,812.262C358.144,815.485 363.866,820.013 367.557,825.847C372.1,832.881 374.371,840.795 374.371,849.588C374.371,858.381 371.733,866.807 366.458,874.867C361.182,882.927 353.561,889.522 343.596,894.651C333.631,899.634 321.541,902.125 307.325,902.125C297.8,902.125 288.714,900.879 280.068,898.388C271.568,895.897 264.021,892.306 257.426,887.617C250.831,882.781 245.629,876.992 241.819,870.251C238.008,863.51 236.103,855.889 236.103,847.389C236.103,839.476 237.642,832.735 240.719,827.166C243.797,821.45 247.607,816.761 252.15,813.097C256.693,809.434 261.236,806.649 265.779,804.744C270.322,802.692 273.986,801.3 276.77,800.567C271.934,798.369 267.831,795.805 264.46,792.874C261.236,789.796 258.745,786.499 256.986,782.982C255.374,779.318 254.568,775.728 254.568,772.21C254.568,770.252 254.818,768.338 255.318,766.471L264.209,766.637L269.373,765.627C268.736,768.202 268.417,771.056 268.417,774.189C268.417,778.292 269.15,782.469 270.615,786.719C272.227,790.969 275.231,795.145 279.628,799.248C282.119,798.809 284.684,798.516 287.322,798.369C289.96,798.076 291.938,797.93 293.257,797.93C295.895,797.93 298.02,798.369 299.632,799.248C301.244,800.128 302.05,801.373 302.05,802.985C302.05,804.304 301.464,805.33 300.291,806.063C299.265,806.796 297.8,807.162 295.895,807.162C293.11,807.162 290.179,806.576 287.102,805.403C284.024,804.085 281.606,803.059 279.848,802.326C271.348,804.817 264.46,808.921 259.184,814.636C253.909,820.205 251.271,828.118 251.271,838.377C251.271,848.489 253.909,857.062 259.184,864.096C264.46,871.13 271.495,876.553 280.287,880.363C289.227,884.026 299.192,885.858 310.183,885.858C317.95,885.858 325.278,884.979 332.165,883.22C339.2,881.315 345.355,878.604 350.63,875.087C356.053,871.57 360.303,867.393 363.38,862.557C366.458,857.575 367.996,851.932 367.996,845.631C367.996,842.846 367.41,839.329 366.238,835.079C365.065,830.683 362.647,826.433 358.984,822.33C355.942,818.802 351.537,815.93 345.769,813.715C341.798,814.974 337.923,816.234 334.144,817.494C329.191,819.058 325.05,820.448 321.72,821.664C324.396,814.88 324.799,808.394 324.707,804.373ZM294.788,840.377C294.646,839.11 294.576,837.784 294.576,836.398C294.576,831.269 295.675,826.726 297.873,822.769C300.218,818.813 303.662,815.295 308.205,812.218C310.169,810.887 312.326,809.638 314.674,808.472L296.603,835.198L294.788,840.377ZM256.936,762.2C256.953,762.166 256.969,762.132 256.986,762.099C258.598,758.728 260.943,755.724 264.021,753.086C267.098,750.448 270.908,748.396 275.451,746.931C280.141,745.465 285.563,744.733 291.718,744.733C297.287,744.733 301.903,745.392 305.567,746.711C309.231,747.883 312.235,749.422 314.58,751.327C316.485,752.793 318.023,754.405 319.196,756.163C320.368,757.922 321.248,759.681 321.834,761.439C322.42,763.198 322.713,764.883 322.713,766.495C322.713,770.159 321.394,773.016 318.756,775.068C316.265,777.12 313.48,778.146 310.403,778.146C307.472,778.146 304.834,777.193 302.489,775.288C300.145,773.383 298.972,770.672 298.972,767.154C298.972,763.93 300.071,761.219 302.27,759.021C304.468,756.676 307.252,755.357 310.623,755.064C310.037,753.159 308.205,751.547 305.127,750.228C302.196,748.763 298.459,748.03 293.916,748.03C286.442,748.03 280.287,750.301 275.451,754.844C273.891,756.308 272.59,757.998 271.549,759.915C265.107,761.823 260.276,762.272 256.936,762.2Z" style="fill:rgb(209,177,122);"/>
                </g>
                <g transform="matrix(0.450216,0,0,0.450216,212.352,126.965)">
                    <path d="M275.094,898.534C270.74,898.437 265.95,898.388 260.723,898.388C255.594,898.388 250.538,898.461 245.556,898.608C240.573,898.608 236.543,898.755 233.465,899.048L233.465,894.651C238.448,894.358 242.185,893.772 244.676,892.893C247.314,892.013 249.073,890.255 249.952,887.617C250.831,884.979 251.271,881.022 251.271,875.746L251.271,766.715C251.271,761.293 250.831,757.336 249.952,754.844C249.073,752.207 247.314,750.448 244.676,749.569C242.185,748.543 238.448,747.957 233.465,747.81L233.465,743.414C236.543,743.56 240.573,743.707 245.556,743.853C250.538,744 255.448,744.073 260.284,744.073C267.171,744.073 273.766,744 280.068,743.853C286.369,743.707 290.839,743.634 293.477,743.634C308.864,743.634 320.442,746.858 328.209,753.306C335.976,759.754 339.859,768.034 339.859,778.146C339.859,783.275 338.76,788.331 336.562,793.313C335.937,794.786 335.177,796.224 334.28,797.629C328.443,795.11 321.629,794.928 317.013,795.205C318.175,790.567 318.756,785.686 318.756,780.564C318.756,769.719 316.338,761.586 311.502,756.163C306.813,750.595 298.972,747.81 287.981,747.81C281.24,747.81 276.844,749.056 274.792,751.547C272.74,754.038 271.714,759.094 271.714,766.715L271.714,816.395L286.442,816.395C295.089,816.395 301.757,814.783 306.446,811.559C310.919,808.343 314.059,804.195 315.866,799.113L324.707,799.278L331.688,801.151C330.074,803.078 328.181,804.935 326.01,806.722C321.174,810.679 314.653,813.903 306.446,816.395L306.446,816.834C318.023,818.3 327.036,821.084 333.484,825.187C340.079,829.144 344.695,833.834 347.333,839.256C349.971,844.678 351.29,850.394 351.29,856.402C351.29,864.755 349.165,872.156 344.915,878.604C340.812,884.906 334.803,889.888 326.89,893.552C318.976,897.216 309.524,899.048 298.533,899.048C295.309,899.048 290.472,898.974 284.024,898.828C283.52,898.805 283.007,898.783 282.486,898.762C282.205,897.062 282.001,895.347 281.87,893.617C283.668,893.867 285.778,893.992 288.201,893.992C302.563,893.992 312.968,890.694 319.416,884.1C326.01,877.359 329.308,867.833 329.308,855.523C329.308,844.239 326.23,835.519 320.075,829.364C314.067,823.209 304.101,820.132 290.179,820.132L271.714,820.132L271.714,875.746C271.714,880.876 272.154,884.759 273.033,887.397C273.47,888.709 274.089,889.803 274.888,890.68C274.676,893.33 274.699,896.003 275.094,898.534Z"/>
                </g>
                <g transform="matrix(0.450216,0,0,0.450216,265.399,169.025)">
                    <path d="M271.714,778.174L271.714,876.186C271.714,883.807 272.74,888.863 274.792,891.354C276.99,893.845 281.46,895.091 288.201,895.091C304.175,895.091 316.558,892.233 325.351,886.518C334.144,880.656 340.299,872.156 343.816,861.018C347.333,849.881 349.092,836.325 349.092,820.351C349.092,803.938 347.113,790.382 343.156,779.684C339.346,768.84 332.971,760.78 324.032,755.504C315.239,750.082 303.222,747.371 287.981,747.371C286.264,747.371 284.7,747.451 283.287,747.613C283.138,747.628 282.968,747.649 282.78,747.675C281.994,747.779 281.258,747.908 280.572,748.065C273.42,749.48 257.207,753.658 250.162,755.496C250.095,755.269 250.025,755.052 249.952,754.844C249.073,752.207 247.314,750.448 244.676,749.569C242.185,748.543 238.448,747.957 233.465,747.81L233.465,743.414C236.543,743.56 240.573,743.78 245.556,744.073C250.538,744.22 255.448,744.22 260.284,744.073C265.413,743.927 271.201,743.78 277.65,743.634C284.098,743.487 289.373,743.414 293.477,743.414C319.709,743.414 339.2,750.008 351.949,763.198C364.699,776.24 371.074,794.999 371.074,819.472C371.074,835.446 367.923,849.441 361.621,861.458C355.466,873.328 346.454,882.561 334.583,889.156C322.713,895.75 308.351,899.048 291.498,899.048C289.3,899.048 286.369,898.974 282.705,898.828C279.042,898.681 275.231,898.608 271.275,898.608C267.464,898.461 263.947,898.388 260.723,898.388C255.594,898.388 250.538,898.461 245.556,898.608C240.573,898.608 236.543,898.755 233.465,899.048L233.465,894.651C238.448,894.358 242.185,893.772 244.676,892.893C247.314,892.013 249.073,890.255 249.952,887.617C250.831,884.979 251.271,881.022 251.271,875.746L251.271,770.567C251.744,770.672 252.309,770.785 252.976,770.907C252.424,771.281 253.635,771.029 252.976,770.907C255.244,769.369 261.35,771.956 261.35,771.956C265.028,773.627 268.543,775.486 271.714,778.174ZM251.271,769.42L251.271,766.715C251.271,766.032 251.264,765.373 251.25,764.737L258.557,764.005L272.052,759.545C271.827,761.507 271.714,763.75 271.714,766.275L271.714,774.643C268.35,772.164 264.17,770.549 260.168,769.434C260.168,769.434 254.436,769.237 251.271,769.42Z"/>
                </g>
                <g transform="matrix(0.450216,0,0,0.450216,225.14,150.772)">
                    <path d="M263.381,753.649C263.591,753.459 263.804,753.272 264.021,753.086C267.098,750.448 270.908,748.396 275.451,746.931C280.141,745.465 285.563,744.733 291.718,744.733C297.287,744.733 301.903,745.392 305.567,746.711C309.231,747.883 312.235,749.422 314.58,751.327C316.485,752.793 318.023,754.405 319.196,756.163C320.368,757.922 321.248,759.681 321.834,761.439C322.42,763.198 322.713,764.883 322.713,766.495C322.713,770.159 321.394,773.016 318.756,775.068C316.265,777.12 313.48,778.146 310.403,778.146C307.472,778.146 304.834,777.193 302.489,775.288C300.145,773.383 298.972,770.672 298.972,767.154C298.972,763.93 300.071,761.219 302.27,759.021C304.468,756.676 307.252,755.357 310.623,755.064C310.037,753.159 308.205,751.547 305.127,750.228C302.196,748.763 298.459,748.03 293.916,748.03C286.442,748.03 280.287,750.301 275.451,754.844C273.783,756.408 265.814,755.702 263.381,753.649Z" style="fill:rgb(209,177,122);"/>
                </g>
                <g transform="matrix(0.450216,0,0,0.450216,225.14,150.772)">
                    <path d="M325.976,900.471C320.23,901.574 314.013,902.125 307.325,902.125C297.8,902.125 288.714,900.879 280.068,898.388C271.568,895.897 264.021,892.306 257.426,887.617C250.831,882.781 245.629,876.992 241.819,870.251C238.008,863.51 236.103,855.889 236.103,847.389C236.103,839.476 237.642,832.735 240.719,827.166C243.797,821.45 247.607,816.761 252.15,813.097C253.36,812.122 254.57,811.208 255.779,810.358L258.635,815.236C253.726,820.767 251.271,828.481 251.271,838.377C251.271,848.489 253.909,857.062 259.184,864.096C264.46,871.13 271.495,876.553 280.287,880.363C289.227,884.026 299.192,885.858 310.183,885.858C314.174,885.858 318.048,885.626 321.806,885.162C323.17,890.204 324.667,895.689 325.976,900.471ZM304.602,856.944C303.251,856.019 302,854.965 300.848,853.783C302.141,854.865 303.397,855.922 304.602,856.944Z" style="fill:rgb(209,177,122);"/>
                </g>
                <g transform="matrix(0.450216,0,0,0.450216,225.14,150.772)">
                    <path d="M332.144,802.019C334.84,801.206 337.778,800.356 340.958,799.468C347.26,797.71 353.708,795.805 360.303,793.753C363.677,792.726 366.886,791.644 369.931,790.507C372.967,789.372 375.104,804.158 369.535,806.063C364.113,807.968 358.251,809.873 351.949,811.778C351.428,811.94 350.908,812.101 350.39,812.262C358.144,815.485 363.866,820.013 367.557,825.847C372.1,832.881 367.41,839.329 366.238,835.079C365.065,830.683 362.647,826.433 358.984,822.33C355.942,818.802 351.537,815.93 345.769,813.715C341.798,814.974 337.923,816.234 334.144,817.494C333.33,817.751 332.539,818.003 331.77,818.25L332.144,802.019ZM237.349,858.72C236.518,855.135 236.103,851.358 236.103,847.389C236.103,843.761 236.427,840.379 237.074,837.244C237.162,844.58 237.254,851.811 237.349,858.72Z" style="fill:rgb(209,177,122);"/>
                </g>
            </g>
        </g>
    </g>
</svg>
