<?xml version="1.0" encoding="UTF-8" standalone="no"?>
<!DOCTYPE svg PUBLIC "-//W3C//DTD SVG 1.1//EN" "http://www.w3.org/Graphics/SVG/1.1/DTD/svg11.dtd">
<svg width="100%" height="100%" viewBox="0 0 272 272" version="1.1" xmlns="http://www.w3.org/2000/svg" xmlns:xlink="http://www.w3.org/1999/xlink" xml:space="preserve" xmlns:serif="http://www.serif.com/" style="fill-rule:evenodd;clip-rule:evenodd;stroke-linejoin:round;stroke-miterlimit:2;">
    <g transform="matrix(1,0,0,1,-403.461,-761.804)">
        <g transform="matrix(1.06942,0,0,1.06942,252.187,-446.605)">
            <rect x="141.455" y="1129.97" width="254.169" height="254.169" style="fill:none;"/>
        </g>
        <g transform="matrix(1,0,0,1,-0.632175,-2.55652)">
            <g>
                <g transform="matrix(1,0,0,1,207.222,85.2063)">
                    <g transform="matrix(219.822,0,0,219.822,408.224,899.048)">
                    </g>
                    <text x="224.233px" y="899.048px" style="font-family:'PlayfairDisplayRoman-Regular', 'Playfair Display';font-size:219.822px;fill:rgb(211,169,96);">&amp;</text>
                </g>
                <g transform="matrix(1,0,0,1,178.818,32.3256)">
                    <g transform="matrix(219.822,0,0,219.822,361.182,899.048)">
                    </g>
                    <text x="224.233px" y="899.048px" style="font-family:'PlayfairDisplayRoman-Regular', 'Playfair Display';font-size:219.822px;">B</text>
                </g>
                <g transform="matrix(1,0,0,1,296.643,125.747)">
                    <g transform="matrix(219.822,0,0,219.822,383.164,899.048)">
                    </g>
                    <text x="224.233px" y="899.048px" style="font-family:'PlayfairDisplayRoman-Regular', 'Playfair Display';font-size:219.822px;">D</text>
                </g>
                <g transform="matrix(1,0,0,1,207.222,85.2063)">
                    <path d="M263.381,753.649C263.591,753.459 263.804,753.272 264.021,753.086C267.098,750.448 270.908,748.396 275.451,746.931C280.141,745.465 285.563,744.733 291.718,744.733C297.287,744.733 301.903,745.392 305.567,746.711C309.231,747.883 312.235,749.422 314.58,751.327C316.485,752.793 318.023,754.405 319.196,756.163C320.368,757.922 321.248,759.681 321.834,761.439C322.42,763.198 322.713,764.883 322.713,766.495C322.713,770.159 321.394,773.016 318.756,775.068C316.265,777.12 313.48,778.146 310.403,778.146C307.472,778.146 304.834,777.193 302.489,775.288C300.145,773.383 298.972,770.672 298.972,767.154C298.972,763.93 300.071,761.219 302.27,759.021C304.468,756.676 307.252,755.357 310.623,755.064C310.037,753.159 308.205,751.547 305.127,750.228C302.196,748.763 298.459,748.03 293.916,748.03C286.442,748.03 280.287,750.301 275.451,754.844C273.783,756.408 265.814,755.702 263.381,753.649Z" style="fill:rgb(211,169,96);"/>
                </g>
                <g transform="matrix(1,0,0,1,207.222,85.2063)">
                    <path d="M325.976,900.471C320.23,901.574 314.013,902.125 307.325,902.125C297.8,902.125 288.714,900.879 280.068,898.388C271.568,895.897 264.021,892.306 257.426,887.617C250.831,882.781 245.629,876.992 241.819,870.251C238.008,863.51 236.103,855.889 236.103,847.389C236.103,839.476 237.642,832.735 240.719,827.166C243.797,821.45 247.607,816.761 252.15,813.097C253.36,812.122 254.57,811.208 255.779,810.358L258.635,815.236C253.726,820.767 251.271,828.481 251.271,838.377C251.271,848.489 253.909,857.062 259.184,864.096C264.46,871.13 271.495,876.553 280.287,880.363C289.227,884.026 299.192,885.858 310.183,885.858C314.174,885.858 318.048,885.626 321.806,885.162C323.17,890.204 324.667,895.689 325.976,900.471ZM304.602,856.944C303.251,856.019 302,854.965 300.848,853.783C302.141,854.865 303.397,855.922 304.602,856.944Z" style="fill:rgb(211,169,96);"/>
                </g>
                <g transform="matrix(1,0,0,1,207.222,85.2063)">
                    <path d="M332.144,802.019C334.84,801.206 337.778,800.356 340.958,799.468C347.26,797.71 353.708,795.805 360.303,793.753C363.677,792.726 366.886,791.644 369.931,790.507C372.967,789.372 375.104,804.158 369.535,806.063C364.113,807.968 358.251,809.873 351.949,811.778C351.428,811.94 350.908,812.101 350.39,812.262C358.144,815.485 363.866,820.013 367.557,825.847C372.1,832.881 367.41,839.329 366.238,835.079C365.065,830.683 362.647,826.433 358.984,822.33C355.942,818.802 351.537,815.93 345.769,813.715C341.798,814.974 337.923,816.234 334.144,817.494C333.33,817.751 332.539,818.003 331.77,818.25L332.144,802.019ZM237.349,858.72C236.518,855.135 236.103,851.358 236.103,847.389C236.103,843.761 236.427,840.379 237.074,837.244C237.162,844.58 237.254,851.811 237.349,858.72Z" style="fill:rgb(211,169,96);"/>
                </g>
            </g>
        </g>
    </g>
</svg>
